<?xml version="1.0" standalone="no"?>
<?xml-stylesheet href="light.css" type="text/css"?>
<!DOCTYPE svg PUBLIC "-//W3C//DTD SVG 1.1//EN" "http://www.w3.org/Graphics/SVG/1.1/DTD/svg11.dtd">
<svg xmlns="http://www.w3.org/2000/svg" version="1.1" viewBox="0 0 1174.136684544 1174.136684544"><g transform="translate(543.2007695235939,592.8298610286859) scale(0.8898292120554675)"><g><path class="link" d="M521.588855799214,84.32644122362788L444.17101559676706,94.53682005082054C366.7531753943202,104.74719887801318,211.91749498942633,125.16795653239849,97.23751014417905,27.539462043603653C-17.442474701068253,-70.08903244519117,-91.96676398666902,-285.7667790771661,-129.2289086294694,-393.6056523931536L-166.49105327226977,-501.4445257091411"></path><path class="link" d="M521.588855799214,84.32644122362788L444.84746840500384,94.3360524081091C368.1060810107938,104.34566359259031,214.62330622237354,124.36488596155277,105.35494384302058,25.13025033106648C-3.913418536332363,-74.10438529941979,-68.967368506618,-292.59287892935475,-101.49434349176083,-401.8371257443223L-134.02131847690364,-511.0813725592898"></path><path class="link" d="M-451.8245198551015,273.89867915176626L-388.5936680547108,256.9924244469972C-325.36281625431997,240.08616974222798,-198.90111265353846,206.27366033268973,-161.80493713039982,81.28433551633897C-124.70876160726118,-43.70498930001177,-176.97811416176543,-259.871129523175,-203.11279043901754,-367.9541996347566L-229.24746671626968,-476.0372697463382"></path><path class="link" d="M-468.4449465467119,244.38742856011112L-404.0192861950114,232.47705987435998C-339.593625843311,220.56669118860881,-210.74230513991003,196.7459538171065,-180.70808789790416,82.21246656124445C-150.6738706558983,-32.32102069461761,-219.4567568752875,-237.5672578348394,-253.8481999849821,-340.19037640495026L-288.2396430946767,-442.8134949750612"></path><path class="link" d="M-483.14043247183577,213.87193760356385L-415.9682767291001,206.04595781724223C-348.79612098636443,198.2199780309206,-214.45180950089298,182.5680184582773,-177.14111505572916,70.19415144130416C-139.8304206105653,-42.179715575669,-199.553343205709,-251.27549003697206,-229.41480450328086,-355.8233772676235L-259.27626580085274,-460.3712644982751"></path><path class="link" d="M-495.8505907266351,182.47760098001677L-431.975847878901,191.95297631069147C-368.10110503116675,201.42835164136616,-240.3516193356984,220.3791023027156,-242.13038630534598,215.02173959816608C-243.9091532749936,209.66437689361658,-375.2161729097572,179.99890082316813,-440.8696827271389,165.16616278794393L-506.5231925445207,150.3334247527197"></path><path class="link" d="M-495.8505907266351,182.47760098001677L-432.1548309907934,191.2704361332743C-368.4590712549516,200.06327128653186,-241.06755178326804,217.64894159304694,-244.27818364805498,206.83125746916008C-247.48881551284185,196.01357334527324,-381.30159871409927,156.7925347909845,-448.20799031472797,137.18201551384007L-515.1143819153566,117.57149623669571"></path><path class="link" d="M-506.5231925445207,150.3334247527197L-437.1231825425801,152.5429604796561C-367.7231725406396,154.7524962065925,-228.92315253675852,159.17156766046529,-197.17238409064078,63.54331189871226C-165.42161564452303,-32.08494386304077,-240.72009875616868,-227.76052684041966,-278.3693403119915,-325.5983183291091L-316.0185818678143,-423.4361098177985"></path><path class="link" d="M-506.5231925445207,150.3334247527197L-434.670225433199,151.161480772874C-362.81725832187743,151.98953679302826,-219.1113240992341,153.64564883333685,-167.7368987780675,46.96555541732687C-116.3624734569009,-59.71453799868309,-157.31955703721107,-274.7308368710116,-177.79809882736615,-382.2389863071758L-198.27664061752122,-489.7471357433401"></path><path class="link" d="M-515.1143819153566,117.57149623669571L-448.74420417040665,135.13719968558198C-382.37402642545663,152.7029031344683,-249.63367093555675,187.83431003224086,-250.71274991619964,182.29346753006294C-251.79182889684253,176.75262502788505,-386.6903423480282,130.53953312575663,-454.139599073621,107.43298717469243L-521.5888557992139,84.32644122362825"></path><path class="link" d="M-515.1143819153566,117.57149623669571L-448.8344365328008,134.43737530124824C-382.554491150245,151.30325436580077,-249.9946003851334,185.0350124949058,-251.79553826492955,173.8955749180578C-253.5964761447257,162.75613734120975,-389.75824266942965,106.74550405840864,-457.83912593178167,78.74018741700809L-525.9200091941336,50.73487077560753"></path><path class="link" d="M-521.5888557992139,84.32644122362825L-448.8096383212355,95.39251299271389C-376.0304208432572,106.45858476179954,-230.47198588730052,128.59072829997083,-186.75322088757366,37.807777346320286C-143.0344558878468,-52.97517360733027,-201.15536084434976,-256.6732190528026,-230.2158133226013,-358.5222417755388L-259.27626580085274,-460.371264498275"></path><path class="link" d="M-525.9200091941336,50.73487077560753L-453.6912967641246,67.46919562420612C-381.46258433411543,84.20352047280471,-237.0051594740972,117.67217017000189,-202.021588253044,38.64367340443422C-167.0380170319908,-40.38482336113346,-241.52829944990253,-231.91046658946598,-278.7734406588584,-327.67328820363224L-316.0185818678143,-423.4361098177985"></path><path class="link" d="M-528.0900444617864,16.934819860974645L-457.98921995998495,53.71749653332183C-387.88839545818354,90.50017320566901,-247.68674645458063,164.0655265503634,-231.89631392684137,211.62379346015163C-216.10588139910217,259.18206036993985,-324.72666534722663,280.7332408448219,-379.03705732128884,291.508831082263L-433.3474492953511,302.284421319704"></path><path class="link" d="M-528.0900444617864,16.934819860974645L-458.3741589299798,53.12612690482313C-388.65827339817315,89.31743394867162,-249.2265023345598,161.7000480363686,-236.515581566779,204.5273579181672C-223.80466079899816,247.3546677999658,-337.81459032704987,260.626673475866,-394.8195550910757,267.26267631381614L-451.8245198551015,273.89867915176626"></path><path class="link" d="M-528.0900444617864,16.934819860974645L-458.72041781938833,52.51130918416365C-389.35079117699024,88.08779850735266,-250.61153789219398,159.24077715373065,-240.67068823968157,197.1495452702534C-230.72983858716916,235.05831338677615,-349.58739256694054,239.72287097344363,-409.01616955682624,242.0551497667774L-468.4449465467119,244.38742856011112"></path><path class="link" d="M-528.0900444617864,16.934819860974645L-459.02657377616174,51.875569789235584C-389.96310309053706,86.81631971749653,-251.83616171928767,156.69781957401838,-244.34455972096256,189.5206725311166C-236.85295772263746,222.3435254882148,-359.9966950972366,218.10773154588932,-421.56856378453614,215.9898345747266L-483.14043247183577,213.87193760356385"></path><path class="link" d="M-528.0900444617864,16.934819860974645L-459.2913687398034,51.221521109578354C-390.49269301782033,85.50822235818207,-252.89534157385427,154.08162485538946,-247.5220992846624,181.67208837522983C-242.1488569954705,209.26255189507017,-368.9997238610528,195.87007643754347,-432.42515729384394,189.17383870878015L-495.8505907266351,182.47760098001677"></path><path class="link" d="M-528.0900444617864,-16.93481986097445L-456.6188956321091,10.582334119983207C-385.1477468024318,38.09948810094086,-242.2054491430773,93.13379606285616,-215.45242199233132,32.69824171957901C-188.69939484158542,-27.73731262369815,-278.1356381994481,-203.6427292721678,-322.8537598783795,-291.5954375964026L-367.57188155731086,-379.5481459206374"></path><path class="link" d="M-528.0900444617864,-16.93481986097445L-459.91781495787626,17.43261068550466C-391.74558545396616,51.800041231983776,-255.4011264461458,120.53490232494198,-255.03945390153703,114.90156050583651C-254.67778135692822,109.26821868673103,-390.2988952755309,29.266673955561846,-458.1094522348323,-10.734098410022744L-525.9200091941336,-50.734870775607334"></path><path class="link" d="M-525.9200091941336,-50.734870775607334L-457.974010804362,-12.138090521744692C-390.0280124145904,26.45868973211795,-254.13601563504722,103.65225023984324,-253.41415673589393,98.05365516517311C-252.69229783674064,92.45506009050298,-387.1405768179773,4.0643094334374625,-454.36471630859563,-40.131065895095304L-521.588855799214,-84.32644122362807"></path><path class="link" d="M-525.9200091941336,-50.734870775607334L-457.83912593178167,-12.83069583451693C-389.75824266942965,25.073479106573473,-253.5964761447257,100.8818289887543,-251.79553826492955,89.74239141190624C-249.9946003851334,78.60295383505822,-382.554491150245,-19.484271200818654,-448.8344365328008,-68.52788371875708L-515.1143819153566,-117.57149623669552"></path><path class="link" d="M-521.588855799214,-84.32644122362807L-449.41304201485696,-48.29937056591726C-377.23722823049997,-12.272299908206444,-232.88560066178593,59.781841407215175,-193.9940652110297,0.033999115309654826C-155.10252976027348,-59.713843176595866,-221.67108642747507,-251.26366907582852,-254.95536476107588,-347.03858202544484L-288.2396430946767,-442.8134949750612"></path><path class="link" d="M-515.1143819153566,-117.57149623669552L-443.2793585454408,-77.061975254646C-371.44433517552494,-36.55245427259648,-227.7742884356933,44.46658769150256,-185.13460241660934,-12.66670701876069C-142.49491639752537,-69.80000172902395,-200.88559109918904,-265.0856331136495,-230.0809284500209,-362.7284488059623L-259.27626580085274,-460.3712644982751"></path><path class="link" d="M-506.5231925445208,-150.33342475271954L-435.9410509578518,-105.04612252874985C-365.35890937118296,-59.75882030478015,-224.19462619784508,30.815784143159238,-182.9868050739004,-20.85718914776669C-141.77898394995572,-72.53016243869261,-200.52762487540426,-266.45071346848385,-229.90194533812848,-363.41098898337947L-259.27626580085274,-460.3712644982751"></path><path class="link" d="M-495.8505907266352,-182.4776009800166L-426.82487023840787,-132.5026063895661C-357.79914975018056,-82.52761179911558,-219.74770877372603,17.422377381785463,-180.318654619429,-28.893233204590956C-140.8896004651319,-75.20884379096736,-200.08293313299234,-267.79005414462125,-229.67959946692255,-364.08065932144814L-259.27626580085274,-460.3712644982751"></path><path class="link" d="M-468.444946546712,-244.38742856011095L-405.14968805766995,-184.1744897467354C-341.85442956862795,-123.96155093335985,-215.26391259054398,-3.5356733066087522,-194.27291024980596,-29.857557689679236C-173.28190790906794,-56.179442072749715,-257.89042020567587,-229.24908846564176,-300.19467635397984,-315.7839116620878L-342.4989325022838,-402.31873485853384"></path><path class="link" d="M-367.57188155731086,-379.5481459206374L-322.4044504634365,-294.37457519831395C-277.23701936956206,-209.20100447599052,-186.9021571818133,-38.853863031343586,-210.06070901301493,-0.6514095033572715C-233.21926084421656,37.55104402462904,-369.87122669436866,-56.39119036404525,-438.1972096194447,-103.3623075583824L-506.5231925445208,-150.33342475271954"></path><path class="link" d="M-367.57188155731086,-379.5481459206374L-322.18210459223053,-295.0442455363826C-276.79232762715014,-210.54034515212788,-186.01277369698946,-41.53254438361834,-207.39255855854353,-8.687453560181538C-228.7723434200976,24.157637263255264,-362.3114670733664,-79.15998185838068,-429.0810289000008,-130.81879141919865L-495.8505907266352,-182.4776009800166"></path><path class="link" d="M-367.57188155731086,-379.5481459206374L-318.9872783792232,-299.62426915885175C-270.40267520113554,-219.7003923970661,-173.23346884496019,-59.852638873494776,-169.0546440024557,-63.64773702981085C-164.8758191599512,-67.44283518612691,-253.6873758311175,-234.8807850223304,-298.0931541667007,-318.5997599404321L-342.4989325022838,-402.31873485853384"></path><path class="link" d="M-342.4989325022838,-402.31873485853384L-295.8369955051078,-320.2835749107996C-249.17505850793177,-238.2484149630653,-155.85118451357968,-74.17809506759673,-141.98074006334116,-83.85351667422027C-128.11029561310264,-93.52893828084382,-193.6932807069777,-276.95010138955945,-226.48477325391522,-368.66068294391727L-259.27626580085274,-460.3712644982751"></path><path class="link" d="M-342.4989325022838,-402.31873485853384L-296.44039919872915,-319.9177880457326C-250.3818658951744,-237.51684123293137,-158.264799288065,-72.71494760732891,-149.22158438679716,-79.4640742934168C-140.1783694855293,-86.21320097950468,-214.20900629010302,-264.51334797728293,-251.22432469238984,-353.66342147617206L-288.2396430946767,-442.8134949750612"></path><path class="link" d="M-198.27664061752122,-489.7471357433401L-173.82925277160143,-394.192518277395C-149.38186492568164,-298.63790081144987,-100.48708923384204,-107.52866587955963,-120.11074610889091,-96.4768282253027C-139.73440298393976,-85.42499057104577,-227.87649242587702,-254.43055019442215,-271.94753714684566,-338.93333000611034L-316.0185818678143,-423.4361098177985"></path><path class="link" d="M-166.49105327226977,-501.4445257091411L-142.19952773646204,-406.1669965107913C-117.90800220065431,-310.8894673124415,-69.32495112903885,-120.33440891574197,-58.40991913973276,-123.19666736804878C-47.49488715042668,-126.05892582035557,-74.24787424342996,-322.3385011216687,-87.62436778993158,-420.47828877232524L-101.00086133643323,-518.6180764229819"></path></g><g><text class="node module-1" dy="0.31em" transform="rotate(-86.3265306122449)translate(538.3615080448,0)" style="text-anchor: start;">BREAK</text><text class="node module-1" dy="0.31em" transform="rotate(-82.65306122448979)translate(538.3615080448,0)" style="text-anchor: start;">DEFAULT</text><text class="node module-1" dy="0.31em" transform="rotate(-78.9795918367347)translate(538.3615080448,0)" style="text-anchor: start;">FUNC</text><text class="node module-1" dy="0.31em" transform="rotate(-75.3061224489796)translate(538.3615080448,0)" style="text-anchor: start;">INTERFACE</text><text class="node module-1" dy="0.31em" transform="rotate(-71.63265306122449)translate(538.3615080448,0)" style="text-anchor: start;">SELECT</text><text class="node module-1" dy="0.31em" transform="rotate(-67.9591836734694)translate(538.3615080448,0)" style="text-anchor: start;">CASE</text><text class="node module-1" dy="0.31em" transform="rotate(-64.28571428571429)translate(538.3615080448,0)" style="text-anchor: start;">DEFER</text><text class="node module-1" dy="0.31em" transform="rotate(-60.61224489795919)translate(538.3615080448,0)" style="text-anchor: start;">GO</text><text class="node module-1" dy="0.31em" transform="rotate(-56.93877551020408)translate(538.3615080448,0)" style="text-anchor: start;">MAP</text><text class="node module-1" dy="0.31em" transform="rotate(-53.265306122448976)translate(538.3615080448,0)" style="text-anchor: start;">STRUCT</text><text class="node module-1" dy="0.31em" transform="rotate(-49.59183673469388)translate(538.3615080448,0)" style="text-anchor: start;">CHAN</text><text class="node module-1" dy="0.31em" transform="rotate(-45.91836734693878)translate(538.3615080448,0)" style="text-anchor: start;">ELSE</text><text class="node module-1" dy="0.31em" transform="rotate(-42.24489795918367)translate(538.3615080448,0)" style="text-anchor: start;">GOTO</text><text class="node module-1" dy="0.31em" transform="rotate(-38.57142857142858)translate(538.3615080448,0)" style="text-anchor: start;">PACKAGE</text><text class="node module-1" dy="0.31em" transform="rotate(-34.89795918367347)translate(538.3615080448,0)" style="text-anchor: start;">SWITCH</text><text class="node module-1" dy="0.31em" transform="rotate(-31.224489795918373)translate(538.3615080448,0)" style="text-anchor: start;">CONST</text><text class="node module-1" dy="0.31em" transform="rotate(-27.551020408163268)translate(538.3615080448,0)" style="text-anchor: start;">FALLTHROUGH</text><text class="node module-1" dy="0.31em" transform="rotate(-23.877551020408163)translate(538.3615080448,0)" style="text-anchor: start;">IF</text><text class="node module-1" dy="0.31em" transform="rotate(-20.204081632653057)translate(538.3615080448,0)" style="text-anchor: start;">RANGE</text><text class="node module-1" dy="0.31em" transform="rotate(-16.530612244897952)translate(538.3615080448,0)" style="text-anchor: start;">TYPE</text><text class="node module-1" dy="0.31em" transform="rotate(-12.857142857142861)translate(538.3615080448,0)" style="text-anchor: start;">CONTINUE</text><text class="node module-1" dy="0.31em" transform="rotate(-9.183673469387756)translate(538.3615080448,0)" style="text-anchor: start;">FOR</text><text class="node module-1" dy="0.31em" transform="rotate(-5.510204081632651)translate(538.3615080448,0)" style="text-anchor: start;">IMPORT</text><text class="node module-1" dy="0.31em" transform="rotate(-1.8367346938775597)translate(538.3615080448,0)" style="text-anchor: start;">RETURN</text><text class="node module-1" dy="0.31em" transform="rotate(1.8367346938775597)translate(538.3615080448,0)" style="text-anchor: start;">VAR</text><text class="node module-1" dy="0.31em" transform="rotate(5.510204081632665)translate(538.3615080448,0)" style="text-anchor: start;">NIL_LIT</text><text class="node module-1" dy="0.31em" transform="rotate(9.183673469387742)translate(538.3615080448,0)" style="text-anchor: start;">IDENTIFIER</text><text class="node module-1" dy="0.31em" transform="rotate(12.857142857142847)translate(538.3615080448,0)" style="text-anchor: start;">L_PAREN</text><text class="node module-1" dy="0.31em" transform="rotate(16.530612244897952)translate(538.3615080448,0)" style="text-anchor: start;">R_PAREN</text><text class="node module-1" dy="0.31em" transform="rotate(20.204081632653057)translate(538.3615080448,0)" style="text-anchor: start;">L_CURLY</text><text class="node module-1" dy="0.31em" transform="rotate(23.877551020408163)translate(538.3615080448,0)" style="text-anchor: start;">R_CURLY</text><text class="node module-1" dy="0.31em" transform="rotate(27.551020408163254)translate(538.3615080448,0)" style="text-anchor: start;">L_BRACKET</text><text class="node module-1" dy="0.31em" transform="rotate(31.22448979591836)translate(538.3615080448,0)" style="text-anchor: start;">R_BRACKET</text><text class="node module-1" dy="0.31em" transform="rotate(34.897959183673464)translate(538.3615080448,0)" style="text-anchor: start;">ASSIGN</text><text class="node module-1" dy="0.31em" transform="rotate(38.571428571428584)translate(538.3615080448,0)" style="text-anchor: start;">COMMA</text><text class="node module-1" dy="0.31em" transform="rotate(42.244897959183675)translate(538.3615080448,0)" style="text-anchor: start;">SEMI</text><text class="node module-1" dy="0.31em" transform="rotate(45.918367346938766)translate(538.3615080448,0)" style="text-anchor: start;">COLON</text><text class="node module-1" dy="0.31em" transform="rotate(49.591836734693885)translate(538.3615080448,0)" style="text-anchor: start;">DOT</text><text class="node module-1" dy="0.31em" transform="rotate(53.265306122448976)translate(538.3615080448,0)" style="text-anchor: start;">PLUS_PLUS</text><text class="node module-1" dy="0.31em" transform="rotate(56.938775510204096)translate(538.3615080448,0)" style="text-anchor: start;">MINUS_MINUS</text><text class="node module-1" dy="0.31em" transform="rotate(60.61224489795919)translate(538.3615080448,0)" style="text-anchor: start;">DECLARE_ASSIGN</text><text class="node module-1" dy="0.31em" transform="rotate(64.28571428571428)translate(538.3615080448,0)" style="text-anchor: start;">ELLIPSIS</text><text class="node module-1" dy="0.31em" transform="rotate(67.9591836734694)translate(538.3615080448,0)" style="text-anchor: start;">LOGICAL_OR</text><text class="node module-1" dy="0.31em" transform="rotate(71.63265306122449)translate(538.3615080448,0)" style="text-anchor: start;">LOGICAL_AND</text><text class="node module-1" dy="0.31em" transform="rotate(75.30612244897961)translate(538.3615080448,0)" style="text-anchor: start;">EQUALS</text><text class="node module-1" dy="0.31em" transform="rotate(78.9795918367347)translate(538.3615080448,0)" style="text-anchor: start;">NOT_EQUALS</text><text class="node module-1" dy="0.31em" transform="rotate(82.65306122448979)translate(538.3615080448,0)" style="text-anchor: start;">LESS</text><text class="node module-1" dy="0.31em" transform="rotate(86.32653061224488)translate(538.3615080448,0)" style="text-anchor: start;">LESS_OR_EQUALS</text><text class="node module-1" dy="0.31em" transform="rotate(90)translate(538.3615080448,0)rotate(180)" style="text-anchor: end;">GREATER</text><text class="node module-1" dy="0.31em" transform="rotate(93.67346938775512)translate(538.3615080448,0)rotate(180)" style="text-anchor: end;">GREATER_OR_EQUALS</text><text class="node module-1" dy="0.31em" transform="rotate(97.34693877551021)translate(538.3615080448,0)rotate(180)" style="text-anchor: end;">OR</text><text class="node module-1" dy="0.31em" transform="rotate(101.02040816326533)translate(538.3615080448,0)rotate(180)" style="text-anchor: end;">DIV</text><text class="node module-1" dy="0.31em" transform="rotate(104.69387755102042)translate(538.3615080448,0)rotate(180)" style="text-anchor: end;">MOD</text><text class="node module-1" dy="0.31em" transform="rotate(108.36734693877548)translate(538.3615080448,0)rotate(180)" style="text-anchor: end;">LSHIFT</text><text class="node module-1" dy="0.31em" transform="rotate(112.0408163265306)translate(538.3615080448,0)rotate(180)" style="text-anchor: end;">RSHIFT</text><text class="node module-1" dy="0.31em" transform="rotate(115.7142857142857)translate(538.3615080448,0)rotate(180)" style="text-anchor: end;">BIT_CLEAR</text><text class="node module-1" dy="0.31em" transform="rotate(119.38775510204081)translate(538.3615080448,0)rotate(180)" style="text-anchor: end;">EXCLAMATION</text><text class="node module-1" dy="0.31em" transform="rotate(123.0612244897959)translate(538.3615080448,0)rotate(180)" style="text-anchor: end;">PLUS</text><text class="node module-1" dy="0.31em" transform="rotate(126.73469387755102)translate(538.3615080448,0)rotate(180)" style="text-anchor: end;">MINUS</text><text class="node module-1" dy="0.31em" transform="rotate(130.40816326530611)translate(538.3615080448,0)rotate(180)" style="text-anchor: end;">CARET</text><text class="node module-1" dy="0.31em" transform="rotate(134.08163265306123)translate(538.3615080448,0)rotate(180)" style="text-anchor: end;">STAR</text><text class="node module-1" dy="0.31em" transform="rotate(137.75510204081633)translate(538.3615080448,0)rotate(180)" style="text-anchor: end;">AMPERSAND</text><text class="node module-1" dy="0.31em" transform="rotate(141.42857142857144)translate(538.3615080448,0)rotate(180)" style="text-anchor: end;">RECEIVE</text><text class="node module-1" dy="0.31em" transform="rotate(145.1020408163265)translate(538.3615080448,0)rotate(180)" style="text-anchor: end;">DECIMAL_LIT</text><text class="node module-1" dy="0.31em" transform="rotate(148.77551020408163)translate(538.3615080448,0)rotate(180)" style="text-anchor: end;">BINARY_LIT</text><text class="node module-1" dy="0.31em" transform="rotate(152.44897959183672)translate(538.3615080448,0)rotate(180)" style="text-anchor: end;">OCTAL_LIT</text><text class="node module-1" dy="0.31em" transform="rotate(156.12244897959184)translate(538.3615080448,0)rotate(180)" style="text-anchor: end;">HEX_LIT</text><text class="node module-1" dy="0.31em" transform="rotate(159.79591836734693)translate(538.3615080448,0)rotate(180)" style="text-anchor: end;">FLOAT_LIT</text><text class="node module-1" dy="0.31em" transform="rotate(163.46938775510205)translate(538.3615080448,0)rotate(180)" style="text-anchor: end;">DECIMAL_FLOAT_LIT</text><text class="node module-1" dy="0.31em" transform="rotate(167.14285714285717)translate(538.3615080448,0)rotate(180)" style="text-anchor: end;">HEX_FLOAT_LIT</text><text class="node module-1" dy="0.31em" transform="rotate(170.81632653061223)translate(538.3615080448,0)rotate(180)" style="text-anchor: end;">HEX_MANTISSA</text><text class="node module-1" dy="0.31em" transform="rotate(174.48979591836735)translate(538.3615080448,0)rotate(180)" style="text-anchor: end;">HEX_EXPONENT</text><text class="node module-1" dy="0.31em" transform="rotate(178.16326530612247)translate(538.3615080448,0)rotate(180)" style="text-anchor: end;">IMAGINARY_LIT</text><text class="node module-1" dy="0.31em" transform="rotate(181.83673469387753)translate(538.3615080448,0)rotate(180)" style="text-anchor: end;">RUNE_LIT</text><text class="node module-1" dy="0.31em" transform="rotate(185.51020408163265)translate(538.3615080448,0)rotate(180)" style="text-anchor: end;">BYTE_VALUE</text><text class="node module-1" dy="0.31em" transform="rotate(189.18367346938777)translate(538.3615080448,0)rotate(180)" style="text-anchor: end;">OCTAL_BYTE_VALUE</text><text class="node module-1" dy="0.31em" transform="rotate(192.85714285714283)translate(538.3615080448,0)rotate(180)" style="text-anchor: end;">HEX_BYTE_VALUE</text><text class="node module-1" dy="0.31em" transform="rotate(196.53061224489795)translate(538.3615080448,0)rotate(180)" style="text-anchor: end;">LITTLE_U_VALUE</text><text class="node module-1" dy="0.31em" transform="rotate(200.20408163265307)translate(538.3615080448,0)rotate(180)" style="text-anchor: end;">BIG_U_VALUE</text><text class="node module-1" dy="0.31em" transform="rotate(203.8775510204082)translate(538.3615080448,0)rotate(180)" style="text-anchor: end;">RAW_STRING_LIT</text><text class="node module-1" dy="0.31em" transform="rotate(207.55102040816325)translate(538.3615080448,0)rotate(180)" style="text-anchor: end;">INTERPRETED_STRING_LIT</text><text class="node module-1" dy="0.31em" transform="rotate(211.22448979591837)translate(538.3615080448,0)rotate(180)" style="text-anchor: end;">WS</text><text class="node module-1" dy="0.31em" transform="rotate(214.8979591836735)translate(538.3615080448,0)rotate(180)" style="text-anchor: end;">COMMENT</text><text class="node module-1" dy="0.31em" transform="rotate(218.57142857142856)translate(538.3615080448,0)rotate(180)" style="text-anchor: end;">TERMINATOR</text><text class="node module-1" dy="0.31em" transform="rotate(222.24489795918367)translate(538.3615080448,0)rotate(180)" style="text-anchor: end;">LINE_COMMENT</text><text class="node module-1" dy="0.31em" transform="rotate(225.9183673469388)translate(538.3615080448,0)rotate(180)" style="text-anchor: end;">UNICODE_VALUE</text><text class="node module-1" dy="0.31em" transform="rotate(229.59183673469386)translate(538.3615080448,0)rotate(180)" style="text-anchor: end;">ESCAPED_VALUE</text><text class="node module-1" dy="0.31em" transform="rotate(233.26530612244898)translate(538.3615080448,0)rotate(180)" style="text-anchor: end;">DECIMALS</text><text class="node module-1" dy="0.31em" transform="rotate(236.9387755102041)translate(538.3615080448,0)rotate(180)" style="text-anchor: end;">OCTAL_DIGIT</text><text class="node module-1" dy="0.31em" transform="rotate(240.61224489795921)translate(538.3615080448,0)rotate(180)" style="text-anchor: end;">HEX_DIGIT</text><text class="node module-1" dy="0.31em" transform="rotate(244.28571428571428)translate(538.3615080448,0)rotate(180)" style="text-anchor: end;">BIN_DIGIT</text><text class="node module-1" dy="0.31em" transform="rotate(247.9591836734694)translate(538.3615080448,0)rotate(180)" style="text-anchor: end;">EXPONENT</text><text class="node module-1" dy="0.31em" transform="rotate(251.63265306122452)translate(538.3615080448,0)rotate(180)" style="text-anchor: end;">LETTER</text><text class="node module-1" dy="0.31em" transform="rotate(255.30612244897958)translate(538.3615080448,0)rotate(180)" style="text-anchor: end;">UNICODE_DIGIT</text><text class="node module-1" dy="0.31em" transform="rotate(258.9795918367347)translate(538.3615080448,0)rotate(180)" style="text-anchor: end;">UNICODE_LETTER</text><text class="node module-2" dy="0.31em" transform="rotate(266.3265306122449)translate(538.3615080448,0)rotate(180)" style="text-anchor: end;">EOF</text></g></g></svg>